mtllib Bowling.mtl
o Default
v -1 0 0
v -1 0 -1
v 0 0 -1
v 0 0 0
v -1 0 -1
v 0 0 -2
v -1 0 -2
v 0 0 -1
v -1 0 -2
v 0 0 -3
v -1 0 -3
v 0 0 -2
v -1 0 -3
v 0 0 -4
v -1 0 -4
v 0 0 -3
v -1 0 -4
v 0 0 -5
v -1 0 -5
v 0 0 -4
v -1 0 -5
v 0 0 -6
v -1 0 -6
v 0 0 -5
v -1 0 -6
v 0 0 -7
v -1 0 -7
v 0 0 -6
v 0 0 0
v 1 0 -1
v 0 0 -1
v 1 0 0
v 0 0 -1
v 1 0 -2
v 0 0 -2
v 1 0 -1
v 0 0 -5
v 1 0 -6
v 0 0 -6
v 1 0 -5
v 0 0 -6
v 1 0 -7
v 0 0 -7
v 1 0 -6
v 0 0 -4
v 1 0 -5
v 0 0 -5
v 1 0 -4
v 0 0 -3
v 1 0 -4
v 0 0 -4
v 1 0 -3
v 0 0 -2
v 1 0 -3
v 0 0 -3
v 1 0 -2
v -1 0 1
v 0 0 0
v -1 0 0
v 0 0 1
v -1 0 2
v 0 0 1
v -1 0 1
v 0 0 2
v -1 0 3
v 0 0 2
v -1 0 2
v 0 0 3
v 0 0 3
v 1 0 2
v 0 0 2
v 1 0 3
v 0 0 2
v 1 0 1
v 0 0 1
v 1 0 2
v 0 0 1
v 1 0 0
v 0 0 0
v 1 0 1
v 1 0 -6
v 2 0 -7
v 1 0 -7
v 2 0 -6
v 1 0 -5
v 2 0 -6
v 1 0 -6
v 2 0 -5
v 1 0 -4
v 2 0 -5
v 1 0 -5
v 2 0 -4
v 1 0 -3
v 2 0 -4
v 1 0 -4
v 2 0 -3
v 1 0 -1
v 2 0 -2
v 1 0 -2
v 2 0 -1
v 1 0 0
v 2 0 -1
v 1 0 -1
v 2 0 0
v 1 0 1
v 2 0 0
v 1 0 0
v 2 0 1
v 1 0 2
v 2 0 1
v 1 0 1
v 2 0 2
v 1 0 3
v 2 0 2
v 1 0 2
v 2 0 3
v 1 0 -2
v 2 0 -3
v 1 0 -3
v 2 0 -2
v -2 0 -6
v -1 0 -7
v -2 0 -7
v -1 0 -6
v -2 0 -5
v -1 0 -6
v -2 0 -6
v -1 0 -5
v -2 0 -3
v -1 0 -4
v -2 0 -4
v -1 0 -3
v -2 0 -2
v -1 0 -3
v -2 0 -3
v -1 0 -2
v -2 0 -1
v -1 0 -2
v -2 0 -2
v -1 0 -1
v -2 0 0
v -1 0 -1
v -2 0 -1
v -1 0 0
v -2 0 1
v -1 0 0
v -2 0 0
v -1 0 1
v -2 0 2
v -1 0 1
v -2 0 1
v -1 0 2
v -2 0 3
v -1 0 2
v -2 0 2
v -1 0 3
v -2 0 -4
v -1 0 -5
v -2 0 -5
v -1 0 -4
v -2 0 -7
v -1 1 -7
v -2 1 -7
v -1 0 -7
v 1 0 -7
v 2 1 -7
v 1 1 -7
v 2 0 -7
v -2 1 -7
v -1 2 -7
v -2 2 -7
v -1 1 -7
v 1 1 -7
v 2 2 -7
v 1 2 -7
v 2 1 -7
v -1 1 -7
v 0 2 -7
v -1 2 -7
v 0 1 -7
v 0 1 -7
v 1 2 -7
v 0 2 -7
v 1 1 -7
v -1 0 -7
v -1 1 -8
v -1 1 -7
v -1 0 -8
v -1 0 -8
v -1 1 -9
v -1 1 -8
v -1 0 -9
v -1 0 -9
v -1 1 -10
v -1 1 -9
v -1 0 -10
v -1 0 -10
v -1 1 -11
v -1 1 -10
v -1 0 -11
v 1 0 -8
v 1 1 -7
v 1 1 -8
v 1 0 -7
v 1 0 -9
v 1 1 -8
v 1 1 -9
v 1 0 -8
v 1 0 -10
v 1 1 -9
v 1 1 -10
v 1 0 -9
v 1 0 -11
v 1 1 -10
v 1 1 -11
v 1 0 -10
v 1 0 -12
v 1 1 -11
v 1 1 -12
v 1 0 -11
v -1 0 -7
v 0 0 -8
v -1 0 -8
v 0 0 -7
v 0 0 -7
v 1 0 -8
v 0 0 -8
v 1 0 -7
v 0 0 -8
v 1 0 -9
v 0 0 -9
v 1 0 -8
v -1 0 -8
v 0 0 -9
v -1 0 -9
v 0 0 -8
v -1 0 -9
v 0 0 -10
v -1 0 -10
v 0 0 -9
v -1 0 -10
v 0 0 -11
v -1 0 -11
v 0 0 -10
v 0 0 -10
v 1 0 -11
v 0 0 -11
v 1 0 -10
v 0 0 -9
v 1 0 -10
v 0 0 -10
v 1 0 -9
v -1 0 -11
v 0 1 -11
v -1 1 -11
v 0 0 -11
v 0 0 -11
v 1 1 -11
v 0 1 -11
v 1 0 -11
v -2 2 -7
v -1 3 -7
v -2 3 -7
v -1 2 -7
v -1 2 -7
v 0 3 -7
v -1 3 -7
v 0 2 -7
v 0 2 -7
v 1 3 -7
v 0 3 -7
v 1 2 -7
v 1 2 -7
v 2 3 -7
v 1 3 -7
v 2 2 -7
v -3 2 -7
v -2 3 -7
v -3 3 -7
v -2 2 -7
v -3 1 -7
v -2 2 -7
v -3 2 -7
v -2 1 -7
v -3 0 -7
v -2 1 -7
v -3 1 -7
v -2 0 -7
v 2 0 -7
v 3 1 -7
v 2 1 -7
v 3 0 -7
v 2 1 -7
v 3 2 -7
v 2 2 -7
v 3 1 -7
v 2 2 -7
v 3 3 -7
v 2 3 -7
v 3 2 -7
v -3 3 -7
v -2 4 -7
v -3 4 -7
v -2 3 -7
v -2 3 -7
v -1 4 -7
v -2 4 -7
v -1 3 -7
v -1 3 -7
v 0 4 -7
v -1 4 -7
v 0 3 -7
v 0 3 -7
v 1 4 -7
v 0 4 -7
v 1 3 -7
v 1 3 -7
v 2 4 -7
v 1 4 -7
v 2 3 -7
v 2 3 -7
v 3 4 -7
v 2 4 -7
v 3 3 -7
v -3 4 -7
v -2 5 -7
v -3 5 -7
v -2 4 -7
v -2 4 -7
v -1 5 -7
v -2 5 -7
v -1 4 -7
v -1 4 -7
v 0 5 -7
v -1 5 -7
v 0 4 -7
v 0 4 -7
v 1 5 -7
v 0 5 -7
v 1 4 -7
v 1 4 -7
v 2 5 -7
v 1 5 -7
v 2 4 -7
v 2 4 -7
v 3 5 -7
v 2 5 -7
v 3 4 -7
v -3 0 -6
v -2 0 -7
v -3 0 -7
v -2 0 -6
v -3 0 -5
v -2 0 -6
v -3 0 -6
v -2 0 -5
v -3 0 -4
v -2 0 -5
v -3 0 -5
v -2 0 -4
v -3 0 -3
v -2 0 -4
v -3 0 -4
v -2 0 -3
v -3 0 -2
v -2 0 -3
v -3 0 -3
v -2 0 -2
v -3 0 -1
v -2 0 -2
v -3 0 -2
v -2 0 -1
v -3 0 0
v -2 0 -1
v -3 0 -1
v -2 0 0
v -3 0 1
v -2 0 0
v -3 0 0
v -2 0 1
v -3 0 2
v -2 0 1
v -3 0 1
v -2 0 2
v -3 0 3
v -2 0 2
v -3 0 2
v -2 0 3
v 2 0 -6
v 3 0 -7
v 2 0 -7
v 3 0 -6
v 2 0 -4
v 3 0 -5
v 2 0 -5
v 3 0 -4
v 2 0 -2
v 3 0 -3
v 2 0 -3
v 3 0 -2
v 2 0 -1
v 3 0 -2
v 2 0 -2
v 3 0 -1
v 2 0 0
v 3 0 -1
v 2 0 -1
v 3 0 0
v 2 0 1
v 3 0 0
v 2 0 0
v 3 0 1
v 2 0 2
v 3 0 1
v 2 0 1
v 3 0 2
v 2 0 3
v 3 0 2
v 2 0 2
v 3 0 3
v 2 0 -3
v 3 0 -4
v 2 0 -4
v 3 0 -3
v 2 0 -5
v 3 0 -6
v 2 0 -6
v 3 0 -5
v 1 5 -7
v 2 6 -7
v 1 6 -7
v 2 5 -7
v -3 5 -7
v -2 6 -7
v -3 6 -7
v -2 5 -7
v -2 5 -7
v -1 6 -7
v -2 6 -7
v -1 5 -7
v -1 5 -7
v 0 6 -7
v -1 6 -7
v 0 5 -7
v 0 5 -7
v 1 6 -7
v 0 6 -7
v 1 5 -7
v 2 5 -7
v 3 6 -7
v 2 6 -7
v 3 5 -7
v -1 0 4
v 0 0 3
v -1 0 3
v 0 0 4
v -1 0 5
v 0 0 4
v -1 0 4
v 0 0 5
v -1 0 6
v 0 0 5
v -1 0 5
v 0 0 6
v -1 0 7
v 0 0 6
v -1 0 6
v 0 0 7
v -1 0 8
v 0 0 7
v -1 0 7
v 0 0 8
v -1 0 9
v 0 0 8
v -1 0 8
v 0 0 9
v -1 0 10
v 0 0 9
v -1 0 9
v 0 0 10
v 0 0 10
v 1 0 9
v 0 0 9
v 1 0 10
v 0 0 9
v 1 0 8
v 0 0 8
v 1 0 9
v 0 0 8
v 1 0 7
v 0 0 7
v 1 0 8
v 0 0 7
v 1 0 6
v 0 0 6
v 1 0 7
v 0 0 6
v 1 0 5
v 0 0 5
v 1 0 6
v 0 0 5
v 1 0 4
v 0 0 4
v 1 0 5
v 0 0 4
v 1 0 3
v 0 0 3
v 1 0 4
v -1 0 11
v 0 0 10
v -1 0 10
v 0 0 11
v -1 0 12
v 0 0 11
v -1 0 11
v 0 0 12
v 0 0 12
v 1 0 11
v 0 0 11
v 1 0 12
v 0 0 11
v 1 0 10
v 0 0 10
v 1 0 11
v -2 0 4
v -1 0 3
v -2 0 3
v -1 0 4
v -2 0 5
v -1 0 4
v -2 0 4
v -1 0 5
v -2 0 6
v -1 0 5
v -2 0 5
v -1 0 6
v -2 0 7
v -1 0 6
v -2 0 6
v -1 0 7
v -2 0 8
v -1 0 7
v -2 0 7
v -1 0 8
v -2 0 9
v -1 0 8
v -2 0 8
v -1 0 9
v -2 0 10
v -1 0 9
v -2 0 9
v -1 0 10
v -2 0 11
v -1 0 10
v -2 0 10
v -1 0 11
v -2 0 12
v -1 0 11
v -2 0 11
v -1 0 12
v 1 0 12
v 2 0 11
v 1 0 11
v 2 0 12
v 1 0 11
v 2 0 10
v 1 0 10
v 2 0 11
v 1 0 10
v 2 0 9
v 1 0 9
v 2 0 10
v 1 0 8
v 2 0 7
v 1 0 7
v 2 0 8
v 1 0 7
v 2 0 6
v 1 0 6
v 2 0 7
v 1 0 6
v 2 0 5
v 1 0 5
v 2 0 6
v 1 0 5
v 2 0 4
v 1 0 4
v 2 0 5
v 1 0 4
v 2 0 3
v 1 0 3
v 2 0 4
v 1 0 9
v 2 0 8
v 1 0 8
v 2 0 9
v -3 0 4
v -2 0 3
v -3 0 3
v -2 0 4
v -3 0 5
v -2 0 4
v -3 0 4
v -2 0 5
v -3 0 6
v -2 0 5
v -3 0 5
v -2 0 6
v -3 0 7
v -2 0 6
v -3 0 6
v -2 0 7
v -3 0 8
v -2 0 7
v -3 0 7
v -2 0 8
v -3 0 9
v -2 0 8
v -3 0 8
v -2 0 9
v -3 0 10
v -2 0 9
v -3 0 9
v -2 0 10
v -3 0 11
v -2 0 10
v -3 0 10
v -2 0 11
v -3 0 12
v -2 0 11
v -3 0 11
v -2 0 12
v 2 0 12
v 3 0 11
v 2 0 11
v 3 0 12
v 2 0 4
v 3 0 3
v 2 0 3
v 3 0 4
v 2 0 5
v 3 0 4
v 2 0 4
v 3 0 5
v 2 0 6
v 3 0 5
v 2 0 5
v 3 0 6
v 2 0 7
v 3 0 6
v 2 0 6
v 3 0 7
v 2 0 8
v 3 0 7
v 2 0 7
v 3 0 8
v 2 0 9
v 3 0 8
v 2 0 8
v 3 0 9
v 2 0 10
v 3 0 9
v 2 0 9
v 3 0 10
v 2 0 11
v 3 0 10
v 2 0 10
v 3 0 11
v -3 0 13
v -2 0 12
v -3 0 12
v -2 0 13
v -2 0 13
v -1 0 12
v -2 0 12
v -1 0 13
v -1 0 13
v 0 0 12
v -1 0 12
v 0 0 13
v 0 0 13
v 1 0 12
v 0 0 12
v 1 0 13
v 1 0 13
v 2 0 12
v 1 0 12
v 2 0 13
v 2 0 13
v 3 0 12
v 2 0 12
v 3 0 13
v 2 0 14
v 3 0 13
v 2 0 13
v 3 0 14
v 1 0 14
v 2 0 13
v 1 0 13
v 2 0 14
v 0 0 14
v 1 0 13
v 0 0 13
v 1 0 14
v -1 0 14
v 0 0 13
v -1 0 13
v 0 0 14
v -2 0 14
v -1 0 13
v -2 0 13
v -1 0 14
v -3 0 14
v -2 0 13
v -3 0 13
v -2 0 14
v -3 0 15
v -2 0 14
v -3 0 14
v -2 0 15
v -2 0 15
v -1 0 14
v -2 0 14
v -1 0 15
v -1 0 15
v 0 0 14
v -1 0 14
v 0 0 15
v 0 0 15
v 1 0 14
v 0 0 14
v 1 0 15
v 1 0 15
v 2 0 14
v 1 0 14
v 2 0 15
v 2 0 15
v 3 0 14
v 2 0 14
v 3 0 15
v 2 0 16
v 3 0 15
v 2 0 15
v 3 0 16
v 1 0 16
v 2 0 15
v 1 0 15
v 2 0 16
v 0 0 16
v 1 0 15
v 0 0 15
v 1 0 16
v -1 0 16
v 0 0 15
v -1 0 15
v 0 0 16
v -2 0 16
v -1 0 15
v -2 0 15
v -1 0 16
v -3 0 16
v -2 0 15
v -3 0 15
v -2 0 16
v -3 0 17
v -2 0 16
v -3 0 16
v -2 0 17
v -2 0 17
v -1 0 16
v -2 0 16
v -1 0 17
v -1 0 17
v 0 0 16
v -1 0 16
v 0 0 17
v 0 0 17
v 1 0 16
v 0 0 16
v 1 0 17
v 1 0 17
v 2 0 16
v 1 0 16
v 2 0 17
v 2 0 17
v 3 0 16
v 2 0 16
v 3 0 17
v 3 0 17
v 2 1 17
v 3 1 17
v 2 0 17
v 2 0 17
v 1 1 17
v 2 1 17
v 1 0 17
v 1 0 17
v 0 1 17
v 1 1 17
v 0 0 17
v 0 0 17
v -1 1 17
v 0 1 17
v -1 0 17
v -1 0 17
v -2 1 17
v -1 1 17
v -2 0 17
v -2 0 17
v -3 1 17
v -2 1 17
v -3 0 17
v 3 1 17
v 2 2 17
v 3 2 17
v 2 1 17
v 2 1 17
v 1 2 17
v 2 2 17
v 1 1 17
v 1 1 17
v 0 2 17
v 1 2 17
v 0 1 17
v 0 1 17
v -1 2 17
v 0 2 17
v -1 1 17
v -1 1 17
v -2 2 17
v -1 2 17
v -2 1 17
v -2 1 17
v -3 2 17
v -2 2 17
v -3 1 17
v 3 2 17
v 2 3 17
v 3 3 17
v 2 2 17
v 2 2 17
v 1 3 17
v 2 3 17
v 1 2 17
v 1 2 17
v 0 3 17
v 1 3 17
v 0 2 17
v 0 2 17
v -1 3 17
v 0 3 17
v -1 2 17
v -1 2 17
v -2 3 17
v -1 3 17
v -2 2 17
v -2 2 17
v -3 3 17
v -2 3 17
v -3 2 17
v 3 3 17
v 2 3 18
v 3 3 18
v 2 3 17
v 2 3 17
v 1 3 18
v 2 3 18
v 1 3 17
v 1 3 17
v 0 3 18
v 1 3 18
v 0 3 17
v 0 3 17
v -1 3 18
v 0 3 18
v -1 3 17
v -1 3 17
v -2 3 18
v -1 3 18
v -2 3 17
v -2 3 17
v -3 3 18
v -2 3 18
v -3 3 17
v -2 3 18
v -3 3 19
v -2 3 19
v -3 3 18
v -1 3 18
v -2 3 19
v -1 3 19
v -2 3 18
v 0 3 18
v -1 3 19
v 0 3 19
v -1 3 18
v 1 3 18
v 0 3 19
v 1 3 19
v 0 3 18
v 2 3 18
v 1 3 19
v 2 3 19
v 1 3 18
v 3 3 18
v 2 3 19
v 3 3 19
v 2 3 18
v 3 3 19
v 2 3 20
v 3 3 20
v 2 3 19
v 3 3 20
v 2 3 21
v 3 3 21
v 2 3 20
v 2 3 20
v 1 3 21
v 2 3 21
v 1 3 20
v 1 3 20
v 0 3 21
v 1 3 21
v 0 3 20
v 0 3 20
v -1 3 21
v 0 3 21
v -1 3 20
v -1 3 20
v -2 3 21
v -1 3 21
v -2 3 20
v -2 3 20
v -3 3 21
v -2 3 21
v -3 3 20
v -2 3 19
v -3 3 20
v -2 3 20
v -3 3 19
v -1 3 19
v -2 3 20
v -1 3 20
v -2 3 19
v 0 3 19
v -1 3 20
v 0 3 20
v -1 3 19
v 1 3 19
v 0 3 20
v 1 3 20
v 0 3 19
v 2 3 19
v 1 3 20
v 2 3 20
v 1 3 19
v 3 3 21
v 2 3 22
v 3 3 22
v 2 3 21
v 2 3 21
v 1 3 22
v 2 3 22
v 1 3 21
v 1 3 21
v 0 3 22
v 1 3 22
v 0 3 21
v 0 3 21
v -1 3 22
v 0 3 22
v -1 3 21
v -1 3 21
v -2 3 22
v -1 3 22
v -2 3 21
v -2 3 21
v -3 3 22
v -2 3 22
v -3 3 21
v -1 1 -11
v 0 1 -10
v -1 1 -10
v 0 1 -11
v 0 1 -11
v 1 1 -10
v 0 1 -10
v 1 1 -11
v 0 1 -10
v 1 1 -9
v 0 1 -9
v 1 1 -10
v -1 1 -10
v 0 1 -9
v -1 1 -9
v 0 1 -10
v -1 1 -9
v 0 1 -8
v -1 1 -8
v 0 1 -9
v -1 1 -8
v 0 1 -7
v -1 1 -7
v 0 1 -8
v 0 1 -9
v 1 1 -8
v 0 1 -8
v 1 1 -9
v 0 1 -8
v 1 1 -7
v 0 1 -7
v 1 1 -8
vt 0.125 0.9375
vt 0.1875 1
vt 0.125 1
vt 0.1875 0.9375
vt 0.25 1
vt 0.25 0.9375
vt 0.0625 0.8125
vt 0.125 0.875
vt 0.0625 0.875
vt 0.125 0.8125
vt 0.25 0.8125
vt 0.3125 0.875
vt 0.25 0.875
vt 0.3125 0.8125
vt 0.0625 0.9375
vt 0.3125 0.9375
vt 0.1875 0.875
vt 0.1875 0.8125
vt 0 0.9375
vt 0.0625 1
vt 0 1
vt 0 0.875
vn 0 1 0
vn 0 0 1
vn 1 0 0
vn -1 0 0
vn 0 0 -1
vn 0 -1 0
g Scene
usemtl 0
f 1/1/1 3/2/1 2/3/1
f 1/1/1 4/4/1 3/2/1
f 5/1/1 6/2/1 7/3/1
f 5/1/1 8/4/1 6/2/1
f 9/1/1 10/2/1 11/3/1
f 9/1/1 12/4/1 10/2/1
f 13/1/1 14/2/1 15/3/1
f 13/1/1 16/4/1 14/2/1
f 17/1/1 18/2/1 19/3/1
f 17/1/1 20/4/1 18/2/1
f 21/1/1 22/2/1 23/3/1
f 21/1/1 24/4/1 22/2/1
f 25/1/1 26/2/1 27/3/1
f 25/1/1 28/4/1 26/2/1
f 29/1/1 30/2/1 31/3/1
f 29/1/1 32/4/1 30/2/1
f 33/1/1 34/2/1 35/3/1
f 33/1/1 36/4/1 34/2/1
f 37/1/1 38/2/1 39/3/1
f 37/1/1 40/4/1 38/2/1
f 41/1/1 42/2/1 43/3/1
f 41/1/1 44/4/1 42/2/1
f 45/1/1 46/2/1 47/3/1
f 45/1/1 48/4/1 46/2/1
f 49/1/1 50/2/1 51/3/1
f 49/1/1 52/4/1 50/2/1
f 53/1/1 54/2/1 55/3/1
f 53/1/1 56/4/1 54/2/1
f 57/1/1 58/2/1 59/3/1
f 57/1/1 60/4/1 58/2/1
f 61/1/1 62/2/1 63/3/1
f 61/1/1 64/4/1 62/2/1
f 65/1/1 66/2/1 67/3/1
f 65/1/1 68/4/1 66/2/1
f 69/1/1 70/2/1 71/3/1
f 69/1/1 72/4/1 70/2/1
f 73/1/1 74/2/1 75/3/1
f 73/1/1 76/4/1 74/2/1
f 77/1/1 78/2/1 79/3/1
f 77/1/1 80/4/1 78/2/1
f 81/4/1 82/5/1 83/2/1
f 81/4/1 84/6/1 82/5/1
f 85/4/1 86/5/1 87/2/1
f 85/4/1 88/6/1 86/5/1
f 89/4/1 90/5/1 91/2/1
f 89/4/1 92/6/1 90/5/1
f 93/4/1 94/5/1 95/2/1
f 93/4/1 96/6/1 94/5/1
f 97/4/1 98/5/1 99/2/1
f 97/4/1 100/6/1 98/5/1
f 101/4/1 102/5/1 103/2/1
f 101/4/1 104/6/1 102/5/1
f 105/4/1 106/5/1 107/2/1
f 105/4/1 108/6/1 106/5/1
f 109/4/1 110/5/1 111/2/1
f 109/4/1 112/6/1 110/5/1
f 113/4/1 114/5/1 115/2/1
f 113/4/1 116/6/1 114/5/1
f 117/4/1 118/5/1 119/2/1
f 117/4/1 120/6/1 118/5/1
f 121/4/1 122/5/1 123/2/1
f 121/4/1 124/6/1 122/5/1
f 125/4/1 126/5/1 127/2/1
f 125/4/1 128/6/1 126/5/1
f 129/4/1 130/5/1 131/2/1
f 129/4/1 132/6/1 130/5/1
f 133/4/1 134/5/1 135/2/1
f 133/4/1 136/6/1 134/5/1
f 137/4/1 138/5/1 139/2/1
f 137/4/1 140/6/1 138/5/1
f 141/4/1 142/5/1 143/2/1
f 141/4/1 144/6/1 142/5/1
f 145/4/1 146/5/1 147/2/1
f 145/4/1 148/6/1 146/5/1
f 149/4/1 150/5/1 151/2/1
f 149/4/1 152/6/1 150/5/1
f 153/4/1 154/5/1 155/2/1
f 153/4/1 156/6/1 154/5/1
f 157/4/1 158/5/1 159/2/1
f 157/4/1 160/6/1 158/5/1
f 161/7/2 162/8/2 163/9/2
f 161/7/2 164/10/2 162/8/2
f 165/11/2 166/12/2 167/13/2
f 165/11/2 168/14/2 166/12/2
f 169/9/2 170/1/2 171/15/2
f 169/9/2 172/8/2 170/1/2
f 173/13/2 174/16/2 175/6/2
f 173/13/2 176/12/2 174/16/2
f 177/17/2 178/6/2 179/4/2
f 177/17/2 180/13/2 178/6/2
f 181/17/2 182/6/2 183/4/2
f 181/17/2 184/13/2 182/6/2
f 185/10/3 186/17/3 187/8/3
f 185/10/3 188/18/3 186/17/3
f 189/10/3 190/17/3 191/8/3
f 189/10/3 192/18/3 190/17/3
f 193/10/3 194/17/3 195/8/3
f 193/10/3 196/18/3 194/17/3
f 197/10/3 198/17/3 199/8/3
f 197/10/3 200/18/3 198/17/3
f 201/10/4 202/17/4 203/8/4
f 201/10/4 204/18/4 202/17/4
f 205/10/4 206/17/4 207/8/4
f 205/10/4 208/18/4 206/17/4
f 209/10/4 210/17/4 211/8/4
f 209/10/4 212/18/4 210/17/4
f 213/10/4 214/17/4 215/8/4
f 213/10/4 216/18/4 214/17/4
f 217/10/4 218/17/4 219/8/4
f 217/10/4 220/18/4 218/17/4
f 221/19/1 222/20/1 223/21/1
f 221/19/1 224/15/1 222/20/1
f 225/19/1 226/20/1 227/21/1
f 225/19/1 228/15/1 226/20/1
f 229/19/1 230/20/1 231/21/1
f 229/19/1 232/15/1 230/20/1
f 233/19/1 234/20/1 235/21/1
f 233/19/1 236/15/1 234/20/1
f 237/19/1 238/20/1 239/21/1
f 237/19/1 240/15/1 238/20/1
f 241/19/1 242/20/1 243/21/1
f 241/19/1 244/15/1 242/20/1
f 245/19/1 246/20/1 247/21/1
f 245/19/1 248/15/1 246/20/1
f 249/19/1 250/20/1 251/21/1
f 249/19/1 252/15/1 250/20/1
f 253/19/2 254/20/2 255/21/2
f 253/19/2 256/15/2 254/20/2
f 257/19/2 258/20/2 259/21/2
f 257/19/2 260/15/2 258/20/2
f 261/19/2 262/20/2 263/21/2
f 261/19/2 264/15/2 262/20/2
f 265/19/2 266/20/2 267/21/2
f 265/19/2 268/15/2 266/20/2
f 269/19/2 270/20/2 271/21/2
f 269/19/2 272/15/2 270/20/2
f 273/19/2 274/20/2 275/21/2
f 273/19/2 276/15/2 274/20/2
f 277/19/2 278/20/2 279/21/2
f 277/19/2 280/15/2 278/20/2
f 281/19/2 282/20/2 283/21/2
f 281/19/2 284/15/2 282/20/2
f 285/19/2 286/20/2 287/21/2
f 285/19/2 288/15/2 286/20/2
f 289/19/2 290/20/2 291/21/2
f 289/19/2 292/15/2 290/20/2
f 293/19/2 294/20/2 295/21/2
f 293/19/2 296/15/2 294/20/2
f 297/19/2 298/20/2 299/21/2
f 297/19/2 300/15/2 298/20/2
f 301/19/2 302/20/2 303/21/2
f 301/19/2 304/15/2 302/20/2
f 305/19/2 306/20/2 307/21/2
f 305/19/2 308/15/2 306/20/2
f 309/19/2 310/20/2 311/21/2
f 309/19/2 312/15/2 310/20/2
f 313/19/2 314/20/2 315/21/2
f 313/19/2 316/15/2 314/20/2
f 317/19/2 318/20/2 319/21/2
f 317/19/2 320/15/2 318/20/2
f 321/19/2 322/20/2 323/21/2
f 321/19/2 324/15/2 322/20/2
f 325/19/2 326/20/2 327/21/2
f 325/19/2 328/15/2 326/20/2
f 329/19/2 330/20/2 331/21/2
f 329/19/2 332/15/2 330/20/2
f 333/19/2 334/20/2 335/21/2
f 333/19/2 336/15/2 334/20/2
f 337/19/2 338/20/2 339/21/2
f 337/19/2 340/15/2 338/20/2
f 341/19/2 342/20/2 343/21/2
f 341/19/2 344/15/2 342/20/2
f 345/19/2 346/20/2 347/21/2
f 345/19/2 348/15/2 346/20/2
f 349/22/1 350/15/1 351/19/1
f 349/22/1 352/9/1 350/15/1
f 353/22/1 354/15/1 355/19/1
f 353/22/1 356/9/1 354/15/1
f 357/22/1 358/15/1 359/19/1
f 357/22/1 360/9/1 358/15/1
f 361/22/1 362/15/1 363/19/1
f 361/22/1 364/9/1 362/15/1
f 365/22/1 366/15/1 367/19/1
f 365/22/1 368/9/1 366/15/1
f 369/22/1 370/15/1 371/19/1
f 369/22/1 372/9/1 370/15/1
f 373/22/1 374/15/1 375/19/1
f 373/22/1 376/9/1 374/15/1
f 377/22/1 378/15/1 379/19/1
f 377/22/1 380/9/1 378/15/1
f 381/22/1 382/15/1 383/19/1
f 381/22/1 384/9/1 382/15/1
f 385/22/1 386/15/1 387/19/1
f 385/22/1 388/9/1 386/15/1
f 389/22/1 390/15/1 391/19/1
f 389/22/1 392/9/1 390/15/1
f 393/22/1 394/15/1 395/19/1
f 393/22/1 396/9/1 394/15/1
f 397/22/1 398/15/1 399/19/1
f 397/22/1 400/9/1 398/15/1
f 401/22/1 402/15/1 403/19/1
f 401/22/1 404/9/1 402/15/1
f 405/22/1 406/15/1 407/19/1
f 405/22/1 408/9/1 406/15/1
f 409/22/1 410/15/1 411/19/1
f 409/22/1 412/9/1 410/15/1
f 413/22/1 414/15/1 415/19/1
f 413/22/1 416/9/1 414/15/1
f 417/22/1 418/15/1 419/19/1
f 417/22/1 420/9/1 418/15/1
f 421/22/1 422/15/1 423/19/1
f 421/22/1 424/9/1 422/15/1
f 425/22/1 426/15/1 427/19/1
f 425/22/1 428/9/1 426/15/1
f 429/15/2 430/3/2 431/20/2
f 429/15/2 432/1/2 430/3/2
f 433/15/2 434/3/2 435/20/2
f 433/15/2 436/1/2 434/3/2
f 437/15/2 438/3/2 439/20/2
f 437/15/2 440/1/2 438/3/2
f 441/15/2 442/3/2 443/20/2
f 441/15/2 444/1/2 442/3/2
f 445/15/2 446/3/2 447/20/2
f 445/15/2 448/1/2 446/3/2
f 449/15/2 450/3/2 451/20/2
f 449/15/2 452/1/2 450/3/2
f 453/1/1 454/2/1 455/3/1
f 453/1/1 456/4/1 454/2/1
f 457/1/1 458/2/1 459/3/1
f 457/1/1 460/4/1 458/2/1
f 461/1/1 462/2/1 463/3/1
f 461/1/1 464/4/1 462/2/1
f 465/1/1 466/2/1 467/3/1
f 465/1/1 468/4/1 466/2/1
f 469/1/1 470/2/1 471/3/1
f 469/1/1 472/4/1 470/2/1
f 473/1/1 474/2/1 475/3/1
f 473/1/1 476/4/1 474/2/1
f 477/1/1 478/2/1 479/3/1
f 477/1/1 480/4/1 478/2/1
f 481/1/1 482/2/1 483/3/1
f 481/1/1 484/4/1 482/2/1
f 485/1/1 486/2/1 487/3/1
f 485/1/1 488/4/1 486/2/1
f 489/1/1 490/2/1 491/3/1
f 489/1/1 492/4/1 490/2/1
f 493/1/1 494/2/1 495/3/1
f 493/1/1 496/4/1 494/2/1
f 497/1/1 498/2/1 499/3/1
f 497/1/1 500/4/1 498/2/1
f 501/1/1 502/2/1 503/3/1
f 501/1/1 504/4/1 502/2/1
f 505/1/1 506/2/1 507/3/1
f 505/1/1 508/4/1 506/2/1
f 509/1/1 510/2/1 511/3/1
f 509/1/1 512/4/1 510/2/1
f 513/1/1 514/2/1 515/3/1
f 513/1/1 516/4/1 514/2/1
f 517/1/1 518/2/1 519/3/1
f 517/1/1 520/4/1 518/2/1
f 521/1/1 522/2/1 523/3/1
f 521/1/1 524/4/1 522/2/1
f 525/4/1 526/5/1 527/2/1
f 525/4/1 528/6/1 526/5/1
f 529/4/1 530/5/1 531/2/1
f 529/4/1 532/6/1 530/5/1
f 533/4/1 534/5/1 535/2/1
f 533/4/1 536/6/1 534/5/1
f 537/4/1 538/5/1 539/2/1
f 537/4/1 540/6/1 538/5/1
f 541/4/1 542/5/1 543/2/1
f 541/4/1 544/6/1 542/5/1
f 545/4/1 546/5/1 547/2/1
f 545/4/1 548/6/1 546/5/1
f 549/4/1 550/5/1 551/2/1
f 549/4/1 552/6/1 550/5/1
f 553/4/1 554/5/1 555/2/1
f 553/4/1 556/6/1 554/5/1
f 557/4/1 558/5/1 559/2/1
f 557/4/1 560/6/1 558/5/1
f 561/4/1 562/5/1 563/2/1
f 561/4/1 564/6/1 562/5/1
f 565/4/1 566/5/1 567/2/1
f 565/4/1 568/6/1 566/5/1
f 569/4/1 570/5/1 571/2/1
f 569/4/1 572/6/1 570/5/1
f 573/4/1 574/5/1 575/2/1
f 573/4/1 576/6/1 574/5/1
f 577/4/1 578/5/1 579/2/1
f 577/4/1 580/6/1 578/5/1
f 581/4/1 582/5/1 583/2/1
f 581/4/1 584/6/1 582/5/1
f 585/4/1 586/5/1 587/2/1
f 585/4/1 588/6/1 586/5/1
f 589/4/1 590/5/1 591/2/1
f 589/4/1 592/6/1 590/5/1
f 593/4/1 594/5/1 595/2/1
f 593/4/1 596/6/1 594/5/1
f 597/22/1 598/15/1 599/19/1
f 597/22/1 600/9/1 598/15/1
f 601/22/1 602/15/1 603/19/1
f 601/22/1 604/9/1 602/15/1
f 605/22/1 606/15/1 607/19/1
f 605/22/1 608/9/1 606/15/1
f 609/22/1 610/15/1 611/19/1
f 609/22/1 612/9/1 610/15/1
f 613/22/1 614/15/1 615/19/1
f 613/22/1 616/9/1 614/15/1
f 617/22/1 618/15/1 619/19/1
f 617/22/1 620/9/1 618/15/1
f 621/22/1 622/15/1 623/19/1
f 621/22/1 624/9/1 622/15/1
f 625/22/1 626/15/1 627/19/1
f 625/22/1 628/9/1 626/15/1
f 629/22/1 630/15/1 631/19/1
f 629/22/1 632/9/1 630/15/1
f 633/22/1 634/15/1 635/19/1
f 633/22/1 636/9/1 634/15/1
f 637/22/1 638/15/1 639/19/1
f 637/22/1 640/9/1 638/15/1
f 641/22/1 642/15/1 643/19/1
f 641/22/1 644/9/1 642/15/1
f 645/22/1 646/15/1 647/19/1
f 645/22/1 648/9/1 646/15/1
f 649/22/1 650/15/1 651/19/1
f 649/22/1 652/9/1 650/15/1
f 653/22/1 654/15/1 655/19/1
f 653/22/1 656/9/1 654/15/1
f 657/22/1 658/15/1 659/19/1
f 657/22/1 660/9/1 658/15/1
f 661/22/1 662/15/1 663/19/1
f 661/22/1 664/9/1 662/15/1
f 665/22/1 666/15/1 667/19/1
f 665/22/1 668/9/1 666/15/1
f 669/19/1 670/20/1 671/21/1
f 669/19/1 672/15/1 670/20/1
f 673/19/1 674/20/1 675/21/1
f 673/19/1 676/15/1 674/20/1
f 677/19/1 678/20/1 679/21/1
f 677/19/1 680/15/1 678/20/1
f 681/19/1 682/20/1 683/21/1
f 681/19/1 684/15/1 682/20/1
f 685/19/1 686/20/1 687/21/1
f 685/19/1 688/15/1 686/20/1
f 689/19/1 690/20/1 691/21/1
f 689/19/1 692/15/1 690/20/1
f 693/19/1 694/20/1 695/21/1
f 693/19/1 696/15/1 694/20/1
f 697/19/1 698/20/1 699/21/1
f 697/19/1 700/15/1 698/20/1
f 701/19/1 702/20/1 703/21/1
f 701/19/1 704/15/1 702/20/1
f 705/19/1 706/20/1 707/21/1
f 705/19/1 708/15/1 706/20/1
f 709/19/1 710/20/1 711/21/1
f 709/19/1 712/15/1 710/20/1
f 713/19/1 714/20/1 715/21/1
f 713/19/1 716/15/1 714/20/1
f 717/19/1 718/20/1 719/21/1
f 717/19/1 720/15/1 718/20/1
f 721/19/1 722/20/1 723/21/1
f 721/19/1 724/15/1 722/20/1
f 725/19/1 726/20/1 727/21/1
f 725/19/1 728/15/1 726/20/1
f 729/19/1 730/20/1 731/21/1
f 729/19/1 732/15/1 730/20/1
f 733/19/1 734/20/1 735/21/1
f 733/19/1 736/15/1 734/20/1
f 737/19/1 738/20/1 739/21/1
f 737/19/1 740/15/1 738/20/1
f 741/19/1 742/20/1 743/21/1
f 741/19/1 744/15/1 742/20/1
f 745/19/1 746/20/1 747/21/1
f 745/19/1 748/15/1 746/20/1
f 749/19/1 750/20/1 751/21/1
f 749/19/1 752/15/1 750/20/1
f 753/19/1 754/20/1 755/21/1
f 753/19/1 756/15/1 754/20/1
f 757/19/1 758/20/1 759/21/1
f 757/19/1 760/15/1 758/20/1
f 761/19/1 762/20/1 763/21/1
f 761/19/1 764/15/1 762/20/1
f 765/19/1 766/20/1 767/21/1
f 765/19/1 768/15/1 766/20/1
f 769/19/1 770/20/1 771/21/1
f 769/19/1 772/15/1 770/20/1
f 773/19/1 774/20/1 775/21/1
f 773/19/1 776/15/1 774/20/1
f 777/19/1 778/20/1 779/21/1
f 777/19/1 780/15/1 778/20/1
f 781/19/1 782/20/1 783/21/1
f 781/19/1 784/15/1 782/20/1
f 785/19/1 786/20/1 787/21/1
f 785/19/1 788/15/1 786/20/1
f 789/8/5 790/4/5 791/1/5
f 789/8/5 792/17/5 790/4/5
f 793/8/5 794/4/5 795/1/5
f 793/8/5 796/17/5 794/4/5
f 797/8/5 798/4/5 799/1/5
f 797/8/5 800/17/5 798/4/5
f 801/8/5 802/4/5 803/1/5
f 801/8/5 804/17/5 802/4/5
f 805/8/5 806/4/5 807/1/5
f 805/8/5 808/17/5 806/4/5
f 809/8/5 810/4/5 811/1/5
f 809/8/5 812/17/5 810/4/5
f 813/4/5 814/5/5 815/2/5
f 813/4/5 816/6/5 814/5/5
f 817/4/5 818/5/5 819/2/5
f 817/4/5 820/6/5 818/5/5
f 821/4/5 822/5/5 823/2/5
f 821/4/5 824/6/5 822/5/5
f 825/4/5 826/5/5 827/2/5
f 825/4/5 828/6/5 826/5/5
f 829/4/5 830/5/5 831/2/5
f 829/4/5 832/6/5 830/5/5
f 833/4/5 834/5/5 835/2/5
f 833/4/5 836/6/5 834/5/5
f 837/17/5 838/6/5 839/4/5
f 837/17/5 840/13/5 838/6/5
f 841/17/5 842/6/5 843/4/5
f 841/17/5 844/13/5 842/6/5
f 845/17/5 846/6/5 847/4/5
f 845/17/5 848/13/5 846/6/5
f 849/17/5 850/6/5 851/4/5
f 849/17/5 852/13/5 850/6/5
f 853/17/5 854/6/5 855/4/5
f 853/17/5 856/13/5 854/6/5
f 857/17/5 858/6/5 859/4/5
f 857/17/5 860/13/5 858/6/5
f 861/19/1 862/20/1 863/21/1
f 861/19/1 864/15/1 862/20/1
f 865/19/1 866/20/1 867/21/1
f 865/19/1 868/15/1 866/20/1
f 869/19/1 870/20/1 871/21/1
f 869/19/1 872/15/1 870/20/1
f 873/19/1 874/20/1 875/21/1
f 873/19/1 876/15/1 874/20/1
f 877/19/1 878/20/1 879/21/1
f 877/19/1 880/15/1 878/20/1
f 881/19/1 882/20/1 883/21/1
f 881/19/1 884/15/1 882/20/1
f 885/19/1 886/20/1 887/21/1
f 885/19/1 888/15/1 886/20/1
f 889/19/1 890/20/1 891/21/1
f 889/19/1 892/15/1 890/20/1
f 893/19/1 894/20/1 895/21/1
f 893/19/1 896/15/1 894/20/1
f 897/19/1 898/20/1 899/21/1
f 897/19/1 900/15/1 898/20/1
f 901/19/1 902/20/1 903/21/1
f 901/19/1 904/15/1 902/20/1
f 905/19/1 906/20/1 907/21/1
f 905/19/1 908/15/1 906/20/1
f 909/19/1 910/20/1 911/21/1
f 909/19/1 912/15/1 910/20/1
f 913/19/1 914/20/1 915/21/1
f 913/19/1 916/15/1 914/20/1
f 917/19/1 918/20/1 919/21/1
f 917/19/1 920/15/1 918/20/1
f 921/19/1 922/20/1 923/21/1
f 921/19/1 924/15/1 922/20/1
f 925/19/1 926/20/1 927/21/1
f 925/19/1 928/15/1 926/20/1
f 929/19/1 930/20/1 931/21/1
f 929/19/1 932/15/1 930/20/1
f 933/19/1 934/20/1 935/21/1
f 933/19/1 936/15/1 934/20/1
f 937/19/1 938/20/1 939/21/1
f 937/19/1 940/15/1 938/20/1
f 941/19/1 942/20/1 943/21/1
f 941/19/1 944/15/1 942/20/1
f 945/19/1 946/20/1 947/21/1
f 945/19/1 948/15/1 946/20/1
f 949/19/1 950/20/1 951/21/1
f 949/19/1 952/15/1 950/20/1
f 953/19/1 954/20/1 955/21/1
f 953/19/1 956/15/1 954/20/1
f 957/19/1 958/20/1 959/21/1
f 957/19/1 960/15/1 958/20/1
f 961/19/1 962/20/1 963/21/1
f 961/19/1 964/15/1 962/20/1
f 965/19/1 966/20/1 967/21/1
f 965/19/1 968/15/1 966/20/1
f 969/19/1 970/20/1 971/21/1
f 969/19/1 972/15/1 970/20/1
f 973/19/1 974/20/1 975/21/1
f 973/19/1 976/15/1 974/20/1
f 977/19/1 978/20/1 979/21/1
f 977/19/1 980/15/1 978/20/1
f 981/19/6 982/20/6 983/21/6
f 981/19/6 984/15/6 982/20/6
f 985/19/6 986/20/6 987/21/6
f 985/19/6 988/15/6 986/20/6
f 989/19/6 990/20/6 991/21/6
f 989/19/6 992/15/6 990/20/6
f 993/19/6 994/20/6 995/21/6
f 993/19/6 996/15/6 994/20/6
f 997/19/6 998/20/6 999/21/6
f 997/19/6 1000/15/6 998/20/6
f 1001/19/6 1002/20/6 1003/21/6
f 1001/19/6 1004/15/6 1002/20/6
f 1005/19/6 1006/20/6 1007/21/6
f 1005/19/6 1008/15/6 1006/20/6
f 1009/19/6 1010/20/6 1011/21/6
f 1009/19/6 1012/15/6 1010/20/6
