mtllib MiiBody.mtl
o Default
v -1 -1 0
v -1 0 0
v 0 0 0
v 0 -1 0
v -1 -2 0
v 0 -1 0
v -1 -1 0
v 0 -2 0
v -1 -3 0
v 0 -2 0
v -1 -2 0
v 0 -3 0
v -1 -4 0
v 0 -3 0
v -1 -3 0
v 0 -4 0
v -1 -5 0
v 0 -4 0
v -1 -4 0
v 0 -5 0
v 0 -4 0
v 1 -3 0
v 0 -3 0
v 1 -4 0
v 0 -3 0
v 1 -2 0
v 0 -2 0
v 1 -3 0
v 0 -2 0
v 1 -1 0
v 0 -1 0
v 1 -2 0
v 0 -1 0
v 1 0 0
v 0 0 0
v 1 -1 0
v 0 -5 0
v 1 -4 0
v 0 -4 0
v 1 -5 0
v -2 -5 0
v -1 -4 0
v -2 -4 0
v -1 -5 0
v -2 -4 0
v -1 -3 0
v -2 -3 0
v -1 -4 0
v -2 -3 0
v -1 -2 0
v -2 -2 0
v -1 -3 0
v -2 -2 0
v -1 -1 0
v -2 -1 0
v -1 -2 0
v -2 -1 0
v -1 0 0
v -2 0 0
v -1 -1 0
v 1 -1 0
v 1 0 -1
v 1 0 0
v 1 -1 -1
v 1 -2 0
v 1 -1 -1
v 1 -1 0
v 1 -2 -1
v 1 -3 0
v 1 -2 -1
v 1 -2 0
v 1 -3 -1
v 1 -4 0
v 1 -3 -1
v 1 -3 0
v 1 -4 -1
v 1 -5 0
v 1 -4 -1
v 1 -4 0
v 1 -5 -1
v 1 -5 -1
v 1 -4 -2
v 1 -4 -1
v 1 -5 -2
v 1 -4 -1
v 1 -3 -2
v 1 -3 -1
v 1 -4 -2
v 1 -3 -1
v 1 -2 -2
v 1 -2 -1
v 1 -3 -2
v 1 -2 -1
v 1 -1 -2
v 1 -1 -1
v 1 -2 -2
v 1 -1 -1
v 1 0 -2
v 1 0 -1
v 1 -1 -2
v 1 -1 -2
v 1 0 -3
v 1 0 -2
v 1 -1 -3
v 1 -2 -2
v 1 -1 -3
v 1 -1 -2
v 1 -2 -3
v 1 -3 -2
v 1 -2 -3
v 1 -2 -2
v 1 -3 -3
v 1 -4 -2
v 1 -3 -3
v 1 -3 -2
v 1 -4 -3
v 1 -5 -2
v 1 -4 -3
v 1 -4 -2
v 1 -5 -3
v 1 -1 -3
v 0 0 -3
v 1 0 -3
v 0 -1 -3
v 1 -2 -3
v 0 -1 -3
v 1 -1 -3
v 0 -2 -3
v 1 -3 -3
v 0 -2 -3
v 1 -2 -3
v 0 -3 -3
v 1 -4 -3
v 0 -3 -3
v 1 -3 -3
v 0 -4 -3
v 1 -5 -3
v 0 -4 -3
v 1 -4 -3
v 0 -5 -3
v 0 -5 -3
v -1 -4 -3
v 0 -4 -3
v -1 -5 -3
v 0 -4 -3
v -1 -3 -3
v 0 -3 -3
v -1 -4 -3
v 0 -3 -3
v -1 -2 -3
v 0 -2 -3
v -1 -3 -3
v 0 -2 -3
v -1 -1 -3
v 0 -1 -3
v -1 -2 -3
v 0 -1 -3
v -1 0 -3
v 0 0 -3
v -1 -1 -3
v -1 -1 -3
v -2 0 -3
v -1 0 -3
v -2 -1 -3
v -1 -2 -3
v -2 -1 -3
v -1 -1 -3
v -2 -2 -3
v -1 -3 -3
v -2 -2 -3
v -1 -2 -3
v -2 -3 -3
v -1 -4 -3
v -2 -3 -3
v -1 -3 -3
v -2 -4 -3
v -1 -5 -3
v -2 -4 -3
v -1 -4 -3
v -2 -5 -3
v -2 -5 -3
v -2 -4 -2
v -2 -4 -3
v -2 -5 -2
v -2 -5 -2
v -2 -4 -1
v -2 -4 -2
v -2 -5 -1
v -2 -5 -1
v -2 -4 0
v -2 -4 -1
v -2 -5 0
v -2 -4 -1
v -2 -3 0
v -2 -3 -1
v -2 -4 0
v -2 -4 -2
v -2 -3 -1
v -2 -3 -2
v -2 -4 -1
v -2 -4 -3
v -2 -3 -2
v -2 -3 -3
v -2 -4 -2
v -2 -3 -3
v -2 -2 -2
v -2 -2 -3
v -2 -3 -2
v -2 -3 -2
v -2 -2 -1
v -2 -2 -2
v -2 -3 -1
v -2 -3 -1
v -2 -2 0
v -2 -2 -1
v -2 -3 0
v -2 -2 -1
v -2 -1 0
v -2 -1 -1
v -2 -2 0
v -2 -2 -2
v -2 -1 -1
v -2 -1 -2
v -2 -2 -1
v -2 -2 -3
v -2 -1 -2
v -2 -1 -3
v -2 -2 -2
v -2 -1 -3
v -2 0 -2
v -2 0 -3
v -2 -1 -2
v -2 -1 -2
v -2 0 -1
v -2 0 -2
v -2 -1 -1
v -2 -1 -1
v -2 0 0
v -2 0 -1
v -2 -1 0
v -2 0 -3
v -1 0 -2
v -1 0 -3
v -2 0 -2
v -2 0 -2
v -1 0 -1
v -1 0 -2
v -2 0 -1
v -2 0 -1
v -1 0 0
v -1 0 -1
v -2 0 0
v -1 0 -1
v 0 0 0
v 0 0 -1
v -1 0 0
v -1 0 -2
v 0 0 -1
v 0 0 -2
v -1 0 -1
v -1 0 -3
v 0 0 -2
v 0 0 -3
v -1 0 -2
v 0 0 -3
v 1 0 -2
v 1 0 -3
v 0 0 -2
v 0 0 -2
v 1 0 -1
v 1 0 -2
v 0 0 -1
v 0 0 -1
v 1 0 0
v 1 0 -1
v 0 0 0
v -1 -5 -1
v -2 -5 0
v -2 -5 -1
v -1 -5 0
v 0 -5 -1
v -1 -5 0
v -1 -5 -1
v 0 -5 0
v 1 -5 -1
v 0 -5 0
v 0 -5 -1
v 1 -5 0
v 1 -5 -2
v 0 -5 -1
v 0 -5 -2
v 1 -5 -1
v 0 -5 -2
v -1 -5 -1
v -1 -5 -2
v 0 -5 -1
v -1 -5 -2
v -2 -5 -1
v -2 -5 -2
v -1 -5 -1
v -1 -5 -3
v -2 -5 -2
v -2 -5 -3
v -1 -5 -2
v 0 -5 -3
v -1 -5 -2
v -1 -5 -3
v 0 -5 -2
v 1 -5 -3
v 0 -5 -2
v 0 -5 -3
v 1 -5 -2
vt 0.25 0.8651685118675232
vt 0.3125 0.9101123809814453
vt 0.25 0.9101123809814453
vt 0.3125 0.8651685118675232
vt 0.25 0.6404494643211365
vt 0.3125 0.6853932738304138
vt 0.25 0.6853932738304138
vt 0.3125 0.6404494643211365
vn 0 0 1
vn 1 0 0
vn 0 0 -1
vn -1 0 0
vn 0 1 0
vn 0 -1 0
g Scene
usemtl 0
f 1/1/1 3/2/1 2/3/1
f 1/1/1 4/4/1 3/2/1
f 5/1/1 6/2/1 7/3/1
f 5/1/1 8/4/1 6/2/1
f 9/1/1 10/2/1 11/3/1
f 9/1/1 12/4/1 10/2/1
f 13/1/1 14/2/1 15/3/1
f 13/1/1 16/4/1 14/2/1
f 17/1/1 18/2/1 19/3/1
f 17/1/1 20/4/1 18/2/1
f 21/1/1 22/2/1 23/3/1
f 21/1/1 24/4/1 22/2/1
f 25/1/1 26/2/1 27/3/1
f 25/1/1 28/4/1 26/2/1
f 29/1/1 30/2/1 31/3/1
f 29/1/1 32/4/1 30/2/1
f 33/1/1 34/2/1 35/3/1
f 33/1/1 36/4/1 34/2/1
f 37/1/1 38/2/1 39/3/1
f 37/1/1 40/4/1 38/2/1
f 41/1/1 42/2/1 43/3/1
f 41/1/1 44/4/1 42/2/1
f 45/1/1 46/2/1 47/3/1
f 45/1/1 48/4/1 46/2/1
f 49/1/1 50/2/1 51/3/1
f 49/1/1 52/4/1 50/2/1
f 53/1/1 54/2/1 55/3/1
f 53/1/1 56/4/1 54/2/1
f 57/1/1 58/2/1 59/3/1
f 57/1/1 60/4/1 58/2/1
f 61/1/2 62/2/2 63/3/2
f 61/1/2 64/4/2 62/2/2
f 65/1/2 66/2/2 67/3/2
f 65/1/2 68/4/2 66/2/2
f 69/1/2 70/2/2 71/3/2
f 69/1/2 72/4/2 70/2/2
f 73/1/2 74/2/2 75/3/2
f 73/1/2 76/4/2 74/2/2
f 77/1/2 78/2/2 79/3/2
f 77/1/2 80/4/2 78/2/2
f 81/1/2 82/2/2 83/3/2
f 81/1/2 84/4/2 82/2/2
f 85/1/2 86/2/2 87/3/2
f 85/1/2 88/4/2 86/2/2
f 89/1/2 90/2/2 91/3/2
f 89/1/2 92/4/2 90/2/2
f 93/1/2 94/2/2 95/3/2
f 93/1/2 96/4/2 94/2/2
f 97/1/2 98/2/2 99/3/2
f 97/1/2 100/4/2 98/2/2
f 101/1/2 102/2/2 103/3/2
f 101/1/2 104/4/2 102/2/2
f 105/1/2 106/2/2 107/3/2
f 105/1/2 108/4/2 106/2/2
f 109/1/2 110/2/2 111/3/2
f 109/1/2 112/4/2 110/2/2
f 113/1/2 114/2/2 115/3/2
f 113/1/2 116/4/2 114/2/2
f 117/1/2 118/2/2 119/3/2
f 117/1/2 120/4/2 118/2/2
f 121/1/3 122/2/3 123/3/3
f 121/1/3 124/4/3 122/2/3
f 125/1/3 126/2/3 127/3/3
f 125/1/3 128/4/3 126/2/3
f 129/1/3 130/2/3 131/3/3
f 129/1/3 132/4/3 130/2/3
f 133/1/3 134/2/3 135/3/3
f 133/1/3 136/4/3 134/2/3
f 137/1/3 138/2/3 139/3/3
f 137/1/3 140/4/3 138/2/3
f 141/1/3 142/2/3 143/3/3
f 141/1/3 144/4/3 142/2/3
f 145/1/3 146/2/3 147/3/3
f 145/1/3 148/4/3 146/2/3
f 149/1/3 150/2/3 151/3/3
f 149/1/3 152/4/3 150/2/3
f 153/1/3 154/2/3 155/3/3
f 153/1/3 156/4/3 154/2/3
f 157/1/3 158/2/3 159/3/3
f 157/1/3 160/4/3 158/2/3
f 161/1/3 162/2/3 163/3/3
f 161/1/3 164/4/3 162/2/3
f 165/1/3 166/2/3 167/3/3
f 165/1/3 168/4/3 166/2/3
f 169/1/3 170/2/3 171/3/3
f 169/1/3 172/4/3 170/2/3
f 173/1/3 174/2/3 175/3/3
f 173/1/3 176/4/3 174/2/3
f 177/1/3 178/2/3 179/3/3
f 177/1/3 180/4/3 178/2/3
f 181/1/4 182/2/4 183/3/4
f 181/1/4 184/4/4 182/2/4
f 185/1/4 186/2/4 187/3/4
f 185/1/4 188/4/4 186/2/4
f 189/1/4 190/2/4 191/3/4
f 189/1/4 192/4/4 190/2/4
f 193/1/4 194/2/4 195/3/4
f 193/1/4 196/4/4 194/2/4
f 197/1/4 198/2/4 199/3/4
f 197/1/4 200/4/4 198/2/4
f 201/1/4 202/2/4 203/3/4
f 201/1/4 204/4/4 202/2/4
f 205/1/4 206/2/4 207/3/4
f 205/1/4 208/4/4 206/2/4
f 209/1/4 210/2/4 211/3/4
f 209/1/4 212/4/4 210/2/4
f 213/1/4 214/2/4 215/3/4
f 213/1/4 216/4/4 214/2/4
f 217/1/4 218/2/4 219/3/4
f 217/1/4 220/4/4 218/2/4
f 221/1/4 222/2/4 223/3/4
f 221/1/4 224/4/4 222/2/4
f 225/1/4 226/2/4 227/3/4
f 225/1/4 228/4/4 226/2/4
f 229/1/4 230/2/4 231/3/4
f 229/1/4 232/4/4 230/2/4
f 233/1/4 234/2/4 235/3/4
f 233/1/4 236/4/4 234/2/4
f 237/1/4 238/2/4 239/3/4
f 237/1/4 240/4/4 238/2/4
f 241/5/5 242/6/5 243/7/5
f 241/5/5 244/8/5 242/6/5
f 245/5/5 246/6/5 247/7/5
f 245/5/5 248/8/5 246/6/5
f 249/5/5 250/6/5 251/7/5
f 249/5/5 252/8/5 250/6/5
f 253/5/5 254/6/5 255/7/5
f 253/5/5 256/8/5 254/6/5
f 257/5/5 258/6/5 259/7/5
f 257/5/5 260/8/5 258/6/5
f 261/5/5 262/6/5 263/7/5
f 261/5/5 264/8/5 262/6/5
f 265/5/5 266/6/5 267/7/5
f 265/5/5 268/8/5 266/6/5
f 269/5/5 270/6/5 271/7/5
f 269/5/5 272/8/5 270/6/5
f 273/5/5 274/6/5 275/7/5
f 273/5/5 276/8/5 274/6/5
f 277/5/6 278/6/6 279/7/6
f 277/5/6 280/8/6 278/6/6
f 281/5/6 282/6/6 283/7/6
f 281/5/6 284/8/6 282/6/6
f 285/5/6 286/6/6 287/7/6
f 285/5/6 288/8/6 286/6/6
f 289/5/6 290/6/6 291/7/6
f 289/5/6 292/8/6 290/6/6
f 293/5/6 294/6/6 295/7/6
f 293/5/6 296/8/6 294/6/6
f 297/5/6 298/6/6 299/7/6
f 297/5/6 300/8/6 298/6/6
f 301/5/6 302/6/6 303/7/6
f 301/5/6 304/8/6 302/6/6
f 305/5/6 306/6/6 307/7/6
f 305/5/6 308/8/6 306/6/6
f 309/5/6 310/6/6 311/7/6
f 309/5/6 312/8/6 310/6/6
