mtllib MiiHead.mtl
o Default
v -1 0 0
v -1 1 0
v 0 1 0
v 0 0 0
v 1 0 0
v 2 1 0
v 1 1 0
v 2 0 0
v 0 0 0
v 1 1 0
v 0 1 0
v 1 0 0
v 0 -1 0
v 1 0 0
v 0 0 0
v 1 -1 0
v 0 -2 0
v 1 -1 0
v 0 -1 0
v 1 -2 0
v -1 -1 0
v 0 0 0
v -1 0 0
v 0 -1 0
v -1 -2 0
v 0 -1 0
v -1 -1 0
v 0 -2 0
v 1 -1 0
v 2 0 0
v 1 0 0
v 2 -1 0
v 1 -2 0
v 2 -1 0
v 1 -1 0
v 2 -2 0
v -1 1 0
v 0 2 0
v -1 2 0
v 0 1 0
v 0 1 0
v 1 2 0
v 0 2 0
v 1 1 0
v 1 1 0
v 2 2 0
v 1 2 0
v 2 1 0
v 2 1 0
v 2 2 -1
v 2 2 0
v 2 1 -1
v 2 1 -1
v 2 2 -2
v 2 2 -1
v 2 1 -2
v -1 1 -1
v -1 2 0
v -1 2 -1
v -1 1 0
v -1 1 -2
v -1 2 -1
v -1 2 -2
v -1 1 -1
v 0 1 -2
v -1 2 -2
v 0 2 -2
v -1 1 -2
v 1 1 -2
v 0 2 -2
v 1 2 -2
v 0 1 -2
v 1 0 -2
v 0 1 -2
v 1 1 -2
v 0 0 -2
v 1 -1 -2
v 0 0 -2
v 1 0 -2
v 0 -1 -2
v 0 -1 -2
v -1 0 -2
v 0 0 -2
v -1 -1 -2
v 0 0 -2
v -1 1 -2
v 0 1 -2
v -1 0 -2
v -1 0 -2
v -1 1 -1
v -1 1 -2
v -1 0 -1
v -1 0 -1
v -1 1 0
v -1 1 -1
v -1 0 0
v -1 -1 -1
v -1 0 0
v -1 0 -1
v -1 -1 0
v -1 -1 -2
v -1 0 -1
v -1 0 -2
v -1 -1 -1
v 2 1 -2
v 1 2 -2
v 2 2 -2
v 1 1 -2
v 2 0 -2
v 1 1 -2
v 2 1 -2
v 1 0 -2
v 2 -1 -2
v 1 0 -2
v 2 0 -2
v 1 -1 -2
v 2 0 0
v 2 1 -1
v 2 1 0
v 2 0 -1
v 2 0 -1
v 2 1 -2
v 2 1 -1
v 2 0 -2
v 2 -1 -1
v 2 0 -2
v 2 0 -1
v 2 -1 -2
v 2 -1 0
v 2 0 -1
v 2 0 0
v 2 -1 -1
v 2 -2 0
v 2 -1 -1
v 2 -1 0
v 2 -2 -1
v 2 -2 -1
v 2 -1 -2
v 2 -1 -1
v 2 -2 -2
v 2 -2 -2
v 1 -1 -2
v 2 -1 -2
v 1 -2 -2
v 1 -2 -2
v 0 -1 -2
v 1 -1 -2
v 0 -2 -2
v 0 -2 -2
v -1 -1 -2
v 0 -1 -2
v -1 -2 -2
v -1 -2 -2
v -1 -1 -1
v -1 -1 -2
v -1 -2 -1
v -1 -2 -1
v -1 -1 0
v -1 -1 -1
v -1 -2 0
v -1 -2 -3
v -1 -1 -2
v -1 -1 -3
v -1 -2 -2
v -1 -1 -3
v -1 0 -2
v -1 0 -3
v -1 -1 -2
v -1 0 -3
v -1 1 -2
v -1 1 -3
v -1 0 -2
v -1 1 -3
v -1 2 -2
v -1 2 -3
v -1 1 -2
v 0 1 -3
v -1 2 -3
v 0 2 -3
v -1 1 -3
v 1 1 -3
v 0 2 -3
v 1 2 -3
v 0 1 -3
v 2 1 -3
v 1 2 -3
v 2 2 -3
v 1 1 -3
v 2 1 -2
v 2 2 -3
v 2 2 -2
v 2 1 -3
v 2 0 -2
v 2 1 -3
v 2 1 -2
v 2 0 -3
v 2 -1 -2
v 2 0 -3
v 2 0 -2
v 2 -1 -3
v 2 -2 -2
v 2 -1 -3
v 2 -1 -2
v 2 -2 -3
v 2 0 -3
v 1 1 -3
v 2 1 -3
v 1 0 -3
v 2 -1 -3
v 1 0 -3
v 2 0 -3
v 1 -1 -3
v 2 -2 -3
v 1 -1 -3
v 2 -1 -3
v 1 -2 -3
v 1 -2 -3
v 0 -1 -3
v 1 -1 -3
v 0 -2 -3
v 1 -1 -3
v 0 0 -3
v 1 0 -3
v 0 -1 -3
v 1 0 -3
v 0 1 -3
v 1 1 -3
v 0 0 -3
v 0 0 -3
v -1 1 -3
v 0 1 -3
v -1 0 -3
v 0 -1 -3
v -1 0 -3
v 0 0 -3
v -1 -1 -3
v 0 -2 -3
v -1 -1 -3
v 0 -1 -3
v -1 -2 -3
v 2 2 0
v 1 2 -1
v 1 2 0
v 2 2 -1
v 1 2 0
v 0 2 -1
v 0 2 0
v 1 2 -1
v 0 2 0
v -1 2 -1
v -1 2 0
v 0 2 -1
v 0 2 -1
v -1 2 -2
v -1 2 -1
v 0 2 -2
v 1 2 -1
v 0 2 -2
v 0 2 -1
v 1 2 -2
v 2 2 -1
v 1 2 -2
v 1 2 -1
v 2 2 -2
v 2 2 -2
v 1 2 -3
v 1 2 -2
v 2 2 -3
v 1 2 -2
v 0 2 -3
v 0 2 -2
v 1 2 -3
v 0 2 -2
v -1 2 -3
v -1 2 -2
v 0 2 -3
v -1 2 0
v 0 3 0
v -1 3 0
v 0 2 0
v 0 2 0
v 1 3 0
v 0 3 0
v 1 2 0
v 1 2 0
v 2 3 0
v 1 3 0
v 2 2 0
v 2 2 0
v 2 3 -1
v 2 3 0
v 2 2 -1
v 2 2 -1
v 2 3 -2
v 2 3 -1
v 2 2 -2
v 2 2 -2
v 2 3 -3
v 2 3 -2
v 2 2 -3
v 2 2 -3
v 1 3 -3
v 2 3 -3
v 1 2 -3
v 1 2 -3
v 0 3 -3
v 1 3 -3
v 0 2 -3
v 0 2 -3
v -1 3 -3
v 0 3 -3
v -1 2 -3
v -1 2 -3
v -1 3 -2
v -1 3 -3
v -1 2 -2
v -1 2 -2
v -1 3 -1
v -1 3 -2
v -1 2 -1
v -1 2 -1
v -1 3 0
v -1 3 -1
v -1 2 0
v -1 3 0
v 0 3 -1
v -1 3 -1
v 0 3 0
v -1 3 -1
v 0 3 -2
v -1 3 -2
v 0 3 -1
v -1 3 -2
v 0 3 -3
v -1 3 -3
v 0 3 -2
v 0 3 -2
v 1 3 -3
v 0 3 -3
v 1 3 -2
v 1 3 -2
v 2 3 -3
v 1 3 -3
v 2 3 -2
v 1 3 -1
v 2 3 -2
v 1 3 -2
v 2 3 -1
v 1 3 0
v 2 3 -1
v 1 3 -1
v 2 3 0
v 0 3 0
v 1 3 -1
v 0 3 -1
v 1 3 0
v 0 3 -1
v 1 3 -2
v 0 3 -2
v 1 3 -1
vt 0 0.8651685118675232
vt 0.0625 0.9101123809814453
vt 0 0.9101123809814453
vt 0.0625 0.8651685118675232
vt 0.125 0.8651685118675232
vt 0.1875 0.9101123809814453
vt 0.125 0.9101123809814453
vt 0.1875 0.8651685118675232
vt 0.0625 0.8202247023582458
vt 0.125 0.8202247023582458
vt 0.0625 0.7752808928489685
vt 0.125 0.7752808928489685
vt 0 0.8202247023582458
vt 0.0625 0.9550561904907227
vt 0 0.9550561904907227
vt 0 0.7752808928489685
vt 0.1875 0.8202247023582458
vt 0.1875 0.7752808928489685
vt 0.1875 0.9550561904907227
vt 0.125 0.9550561904907227
vt 0.0625 1
vt 0 1
vn 0 0 1
vn 1 0 0
vn -1 0 0
vn 0 0 -1
vn 0 1 0
g Scene
usemtl 0
f 1/1/1 3/2/1 2/3/1
f 1/1/1 4/4/1 3/2/1
f 5/5/1 6/6/1 7/7/1
f 5/5/1 8/8/1 6/6/1
f 9/4/1 10/7/1 11/2/1
f 9/4/1 12/5/1 10/7/1
f 13/9/1 14/5/1 15/4/1
f 13/9/1 16/10/1 14/5/1
f 17/11/1 18/10/1 19/9/1
f 17/11/1 20/12/1 18/10/1
f 21/13/1 22/4/1 23/1/1
f 21/13/1 24/9/1 22/4/1
f 25/13/1 26/4/1 27/1/1
f 25/13/1 28/9/1 26/4/1
f 29/13/1 30/4/1 31/1/1
f 29/13/1 32/9/1 30/4/1
f 33/13/1 34/4/1 35/1/1
f 33/13/1 36/9/1 34/4/1
f 37/3/1 38/14/1 39/15/1
f 37/3/1 40/2/1 38/14/1
f 41/3/1 42/14/1 43/15/1
f 41/3/1 44/2/1 42/14/1
f 45/3/1 46/14/1 47/15/1
f 45/3/1 48/2/1 46/14/1
f 49/3/2 50/14/2 51/15/2
f 49/3/2 52/2/2 50/14/2
f 53/3/2 54/14/2 55/15/2
f 53/3/2 56/2/2 54/14/2
f 57/3/3 58/14/3 59/15/3
f 57/3/3 60/2/3 58/14/3
f 61/3/3 62/14/3 63/15/3
f 61/3/3 64/2/3 62/14/3
f 65/3/4 66/14/4 67/15/4
f 65/3/4 68/2/4 66/14/4
f 69/3/4 70/14/4 71/15/4
f 69/3/4 72/2/4 70/14/4
f 73/16/4 74/9/4 75/13/4
f 73/16/4 76/11/4 74/9/4
f 77/16/4 78/9/4 79/13/4
f 77/16/4 80/11/4 78/9/4
f 81/16/4 82/9/4 83/13/4
f 81/16/4 84/11/4 82/9/4
f 85/16/4 86/9/4 87/13/4
f 85/16/4 88/11/4 86/9/4
f 89/16/3 90/9/3 91/13/3
f 89/16/3 92/11/3 90/9/3
f 93/16/3 94/9/3 95/13/3
f 93/16/3 96/11/3 94/9/3
f 97/16/3 98/9/3 99/13/3
f 97/16/3 100/11/3 98/9/3
f 101/16/3 102/9/3 103/13/3
f 101/16/3 104/11/3 102/9/3
f 105/3/4 106/14/4 107/15/4
f 105/3/4 108/2/4 106/14/4
f 109/12/4 110/17/4 111/10/4
f 109/12/4 112/18/4 110/17/4
f 113/12/4 114/17/4 115/10/4
f 113/12/4 116/18/4 114/17/4
f 117/12/2 118/17/2 119/10/2
f 117/12/2 120/18/2 118/17/2
f 121/12/2 122/17/2 123/10/2
f 121/12/2 124/18/2 122/17/2
f 125/12/2 126/17/2 127/10/2
f 125/12/2 128/18/2 126/17/2
f 129/12/2 130/17/2 131/10/2
f 129/12/2 132/18/2 130/17/2
f 133/12/2 134/17/2 135/10/2
f 133/12/2 136/18/2 134/17/2
f 137/12/2 138/17/2 139/10/2
f 137/12/2 140/18/2 138/17/2
f 141/12/4 142/17/4 143/10/4
f 141/12/4 144/18/4 142/17/4
f 145/12/4 146/17/4 147/10/4
f 145/12/4 148/18/4 146/17/4
f 149/12/4 150/17/4 151/10/4
f 149/12/4 152/18/4 150/17/4
f 153/12/3 154/17/3 155/10/3
f 153/12/3 156/18/3 154/17/3
f 157/12/3 158/17/3 159/10/3
f 157/12/3 160/18/3 158/17/3
f 161/12/3 162/17/3 163/10/3
f 161/12/3 164/18/3 162/17/3
f 165/12/3 166/17/3 167/10/3
f 165/12/3 168/18/3 166/17/3
f 169/12/3 170/17/3 171/10/3
f 169/12/3 172/18/3 170/17/3
f 173/7/3 174/19/3 175/20/3
f 173/7/3 176/6/3 174/19/3
f 177/7/4 178/19/4 179/20/4
f 177/7/4 180/6/4 178/19/4
f 181/7/4 182/19/4 183/20/4
f 181/7/4 184/6/4 182/19/4
f 185/7/4 186/19/4 187/20/4
f 185/7/4 188/6/4 186/19/4
f 189/7/2 190/19/2 191/20/2
f 189/7/2 192/6/2 190/19/2
f 193/12/2 194/17/2 195/10/2
f 193/12/2 196/18/2 194/17/2
f 197/12/2 198/17/2 199/10/2
f 197/12/2 200/18/2 198/17/2
f 201/12/2 202/17/2 203/10/2
f 201/12/2 204/18/2 202/17/2
f 205/12/4 206/17/4 207/10/4
f 205/12/4 208/18/4 206/17/4
f 209/12/4 210/17/4 211/10/4
f 209/12/4 212/18/4 210/17/4
f 213/12/4 214/17/4 215/10/4
f 213/12/4 216/18/4 214/17/4
f 217/12/4 218/17/4 219/10/4
f 217/12/4 220/18/4 218/17/4
f 221/12/4 222/17/4 223/10/4
f 221/12/4 224/18/4 222/17/4
f 225/12/4 226/17/4 227/10/4
f 225/12/4 228/18/4 226/17/4
f 229/12/4 230/17/4 231/10/4
f 229/12/4 232/18/4 230/17/4
f 233/12/4 234/17/4 235/10/4
f 233/12/4 236/18/4 234/17/4
f 237/12/4 238/17/4 239/10/4
f 237/12/4 240/18/4 238/17/4
f 241/15/5 242/21/5 243/22/5
f 241/15/5 244/14/5 242/21/5
f 245/15/5 246/21/5 247/22/5
f 245/15/5 248/14/5 246/21/5
f 249/15/5 250/21/5 251/22/5
f 249/15/5 252/14/5 250/21/5
f 253/15/5 254/21/5 255/22/5
f 253/15/5 256/14/5 254/21/5
f 257/15/5 258/21/5 259/22/5
f 257/15/5 260/14/5 258/21/5
f 261/15/5 262/21/5 263/22/5
f 261/15/5 264/14/5 262/21/5
f 265/15/5 266/21/5 267/22/5
f 265/15/5 268/14/5 266/21/5
f 269/15/5 270/21/5 271/22/5
f 269/15/5 272/14/5 270/21/5
f 273/15/5 274/21/5 275/22/5
f 273/15/5 276/14/5 274/21/5
f 277/15/1 278/21/1 279/22/1
f 277/15/1 280/14/1 278/21/1
f 281/15/1 282/21/1 283/22/1
f 281/15/1 284/14/1 282/21/1
f 285/15/1 286/21/1 287/22/1
f 285/15/1 288/14/1 286/21/1
f 289/15/2 290/21/2 291/22/2
f 289/15/2 292/14/2 290/21/2
f 293/15/2 294/21/2 295/22/2
f 293/15/2 296/14/2 294/21/2
f 297/15/2 298/21/2 299/22/2
f 297/15/2 300/14/2 298/21/2
f 301/15/4 302/21/4 303/22/4
f 301/15/4 304/14/4 302/21/4
f 305/15/4 306/21/4 307/22/4
f 305/15/4 308/14/4 306/21/4
f 309/15/4 310/21/4 311/22/4
f 309/15/4 312/14/4 310/21/4
f 313/15/3 314/21/3 315/22/3
f 313/15/3 316/14/3 314/21/3
f 317/15/3 318/21/3 319/22/3
f 317/15/3 320/14/3 318/21/3
f 321/15/3 322/21/3 323/22/3
f 321/15/3 324/14/3 322/21/3
f 325/15/5 326/21/5 327/22/5
f 325/15/5 328/14/5 326/21/5
f 329/15/5 330/21/5 331/22/5
f 329/15/5 332/14/5 330/21/5
f 333/15/5 334/21/5 335/22/5
f 333/15/5 336/14/5 334/21/5
f 337/15/5 338/21/5 339/22/5
f 337/15/5 340/14/5 338/21/5
f 341/15/5 342/21/5 343/22/5
f 341/15/5 344/14/5 342/21/5
f 345/15/5 346/21/5 347/22/5
f 345/15/5 348/14/5 346/21/5
f 349/15/5 350/21/5 351/22/5
f 349/15/5 352/14/5 350/21/5
f 353/15/5 354/21/5 355/22/5
f 353/15/5 356/14/5 354/21/5
f 357/15/5 358/21/5 359/22/5
f 357/15/5 360/14/5 358/21/5
