mtllib Pins.mtl
o Default
v -0.5 0 0
v -0.5 1 0
v 0 1 0
v 0 0 0
v 0 0 0
v 1.1102230246251565e-16 1 -0.5
v 0 1 0
v 1.1102230246251565e-16 0 -0.5
v -0.5 0 -0.5
v -0.5 1 0
v -0.5 1 -0.5
v -0.5 0 0
v 1.1102230246251565e-16 0 -0.5
v -0.5 1 -0.5
v 1.1102230246251565e-16 1 -0.5
v -0.5 0 -0.5
v 0 1 0
v -0.5 1 -0.5
v -0.5 1 0
v 1.1102230246251565e-16 1 -0.5
v -0.5 0 0
v 1.1102230246251565e-16 0 -0.5
v 0 0 0
v -0.5 0 -0.5
vt 0.375 0.875
vt 0.4375 0.9375
vt 0.375 0.9375
vt 0.4375 0.875
vt 0 0.875
vt 0.0625 0.9375
vt 0 0.9375
vt 0.0625 0.875
vn 0 0 1
vn 1 0 0
vn -1 0 0
vn 0 0 -1
vn 0 1 0
vn 0 -1 0
g Scene
usemtl 0
f 1/1/1 3/2/1 2/3/1
f 1/1/1 4/4/1 3/2/1
f 5/1/2 6/2/2 7/3/2
f 5/1/2 8/4/2 6/2/2
f 9/1/3 10/2/3 11/3/3
f 9/1/3 12/4/3 10/2/3
f 13/1/4 14/2/4 15/3/4
f 13/1/4 16/4/4 14/2/4
f 17/5/5 18/6/5 19/7/5
f 17/5/5 20/8/5 18/6/5
f 21/5/6 22/6/6 23/7/6
f 21/5/6 24/8/6 22/6/6
